<svg width="307" height="545" viewBox="0 0 307 545" fill="none" xmlns="http://www.w3.org/2000/svg">
<circle cx="104" cy="69" r="58" fill="#FFE37F"/>
<g filter="url(#filter0_d_6_23)">
<path d="M109.477 302H103.477V308H109.477V302ZM109.477 75.0909V69.0909H103.477V75.0909H109.477ZM239.108 88.7188L236.097 93.9085L236.106 93.9138L236.115 93.9191L239.108 88.7188ZM275.116 127.608L269.736 130.263L269.741 130.272L275.116 127.608ZM275.006 249.151L280.382 251.815L280.386 251.806L275.006 249.151ZM238.222 288.372L241.17 293.598L241.179 293.593L241.188 293.587L238.222 288.372ZM136.955 277.625H130.955V283.625H136.955V277.625ZM252.071 140.793L246.599 143.255L246.605 143.266L252.071 140.793ZM225.259 110.213L222.162 115.352L222.174 115.359L222.186 115.366L225.259 110.213ZM136.955 99.4659V93.4659H130.955V99.4659H136.955ZM179.5 296H109.477V308H179.5V296ZM115.477 302V75.0909H103.477V302H115.477ZM109.477 81.0909H182.602V69.0909H109.477V81.0909ZM182.602 81.0909C203.784 81.0909 221.531 85.4576 236.097 93.9085L242.119 83.529C225.367 73.8094 205.444 69.0909 182.602 69.0909V81.0909ZM236.115 93.9191C250.697 102.31 261.891 114.365 269.736 130.263L280.497 124.953C271.649 107.021 258.837 93.1498 242.101 83.5184L236.115 93.9191ZM269.741 130.272C277.587 146.104 281.636 165.313 281.636 188.102H293.636C293.636 163.915 289.339 142.793 280.492 124.944L269.741 130.272ZM281.636 188.102C281.636 211.036 277.551 230.434 269.625 246.495L280.386 251.806C289.301 233.742 293.636 212.441 293.636 188.102H281.636ZM269.63 246.486C261.727 262.43 250.292 274.604 235.255 283.157L241.188 293.587C258.355 283.823 271.443 269.848 280.382 251.815L269.63 246.486ZM235.273 283.147C220.267 291.613 201.764 296 179.5 296V308C203.327 308 223.972 303.301 241.17 293.598L235.273 283.147ZM136.955 283.625H177.727V271.625H136.955V283.625ZM177.727 283.625C197.232 283.625 213.909 279.864 227.409 271.942L221.335 261.592C210.165 268.147 195.745 271.625 177.727 271.625V283.625ZM227.409 271.942C240.842 264.059 250.872 252.798 257.426 238.331L246.495 233.379C240.935 245.651 232.572 254.998 221.335 261.592L227.409 271.942ZM257.426 238.331C263.913 224.01 267.045 207.209 267.045 188.102H255.045C255.045 205.928 252.121 220.961 246.495 233.379L257.426 238.331ZM267.045 188.102C267.045 169.147 263.952 152.493 257.537 138.319L246.605 143.266C252.156 155.535 255.045 170.421 255.045 188.102H267.045ZM257.543 138.33C251.083 123.976 241.338 112.815 228.331 105.06L222.186 115.366C232.963 121.793 241.093 131.018 246.599 143.255L257.543 138.33ZM228.355 105.074C215.303 97.2099 199.35 93.4659 180.83 93.4659V105.466C197.763 105.466 211.43 108.887 222.162 115.352L228.355 105.074ZM180.83 93.4659H136.955V105.466H180.83V93.4659ZM130.955 99.4659V277.625H142.955V99.4659H130.955Z" fill="#FEFEFE"/>
</g>
<path d="M83.616 396.432C69.264 396.432 56.992 392.48 46.8 384.576C36.608 376.672 28.808 365.856 23.4 352.128C18.2 338.4 15.6 322.8 15.6 305.328C15.6 285.776 20.176 267.264 29.328 249.792C38.48 232.112 50.44 217.968 65.208 207.36C80.184 196.544 95.68 191.136 111.696 191.136C125.216 191.136 135.616 194.152 142.896 200.184C150.176 206.216 153.816 213.288 153.816 221.4C153.816 226.184 152.36 230.552 149.448 234.504C146.744 238.456 142.792 241.472 137.592 243.552C136.968 242.304 136.656 240.328 136.656 237.624C136.656 235.128 136.968 232.632 137.592 230.136C138.008 226.808 138.216 224.416 138.216 222.96C138.216 220.88 137.904 219.112 137.28 217.656C134.368 210.376 126.464 206.736 113.568 206.736C110.032 206.736 105.872 207.048 101.088 207.672C90.064 209.128 79.144 214.64 68.328 224.208C57.512 233.568 48.672 245.32 41.808 259.464C34.944 273.608 31.512 288.064 31.512 302.832C31.512 315.728 33.592 328 37.752 339.648C42.12 351.088 48.36 360.344 56.472 367.416C64.584 374.488 74.256 378.024 85.488 378.024C100.048 378.024 112.112 376.256 121.68 372.72C131.456 369.184 141.024 363.776 150.384 356.496C151.424 355.664 152.568 355.248 153.816 355.248C156.104 355.248 157.664 356.6 158.496 359.304C159.536 364.296 156.208 369.704 148.512 375.528C140.816 381.352 130.832 386.344 118.56 390.504C106.288 394.456 94.64 396.432 83.616 396.432Z" fill="white"/>
<defs>
<filter id="filter0_d_6_23" x="100.477" y="67.0909" width="206.159" height="254.909" filterUnits="userSpaceOnUse" color-interpolation-filters="sRGB">
<feFlood flood-opacity="0" result="BackgroundImageFix"/>
<feColorMatrix in="SourceAlpha" type="matrix" values="0 0 0 0 0 0 0 0 0 0 0 0 0 0 0 0 0 0 127 0" result="hardAlpha"/>
<feOffset dx="5" dy="6"/>
<feGaussianBlur stdDeviation="7"/>
<feComposite in2="hardAlpha" operator="out"/>
<feColorMatrix type="matrix" values="0 0 0 0 1 0 0 0 0 1 0 0 0 0 1 0 0 0 0.25 0"/>
<feBlend mode="normal" in2="BackgroundImageFix" result="effect1_dropShadow_6_23"/>
<feBlend mode="normal" in="SourceGraphic" in2="effect1_dropShadow_6_23" result="shape"/>
</filter>
</defs>
</svg>
